<svg width="43" height="33" viewBox="0 0 43 33" fill="none" xmlns="http://www.w3.org/2000/svg">
<mask id="mask0_264_286" style="mask-type:luminance" maskUnits="userSpaceOnUse" x="0" y="0" width="43" height="33">
<path d="M43 0H0V32.624H43V0Z" fill="white"/>
</mask>
<g mask="url(#mask0_264_286)">
<path d="M19.7636 19.3136V10.8627C19.7636 10.5423 19.6411 10.2349 19.4232 10.0083C19.2052 9.78174 18.9096 9.65444 18.6014 9.65444C18.2932 9.65444 17.9976 9.78174 17.7796 10.0083C17.5617 10.2349 17.4392 10.5423 17.4392 10.8627V19.2701C17.4392 21.9754 15.3474 24.1758 12.7906 24.1758C10.2338 24.1758 8.14195 21.9754 8.14195 19.2701V7.23784C8.14195 6.91738 8.01951 6.61004 7.80156 6.38344C7.58361 6.15684 7.28801 6.02954 6.97979 6.02954C6.67156 6.02954 6.37596 6.15684 6.15802 6.38344C5.94007 6.61004 5.81763 6.91738 5.81763 7.23784V19.3136C5.81763 21.2363 6.55228 23.0803 7.85996 24.4399C9.16765 25.7995 10.9413 26.5634 12.7906 26.5634C14.6399 26.5634 16.4136 25.7995 17.7212 24.4399C19.0289 23.0803 19.7636 21.2363 19.7636 19.3136Z" fill="#F7146B"/>
<path d="M19.1024 6.02953C19.3312 6.02787 19.5547 5.95724 19.7457 5.82621C19.9367 5.69517 20.0871 5.50935 20.1785 5.29126C20.5409 4.43684 21.1336 3.70987 21.885 3.19823C22.6363 2.6866 23.5141 2.41222 24.4123 2.40827C26.976 2.40827 29.0609 4.60978 29.0609 7.31395V19.3208C29.0609 19.6413 29.1834 19.9486 29.4013 20.1752C29.6193 20.4018 29.9149 20.5291 30.2231 20.5291C30.5313 20.5291 30.8269 20.4018 31.0449 20.1752C31.2628 19.9486 31.3853 19.6413 31.3853 19.3208V7.24992C31.3872 5.58338 30.8368 3.96704 29.8267 2.673C28.8167 1.37895 27.4086 0.48622 25.8397 0.145076C24.2707 -0.196068 22.6366 0.0352087 21.2124 0.799975C19.7883 1.56474 18.661 2.8163 18.0204 4.34396C17.9446 4.52922 17.9142 4.73117 17.9319 4.93166C17.9497 5.13216 18.0151 5.32492 18.1223 5.49263C18.2294 5.66035 18.375 5.79776 18.5459 5.89253C18.7167 5.9873 18.9076 6.03645 19.1012 6.03558" fill="#F7146B"/>
<path d="M24.4122 6.02954C24.1039 6.02954 23.8083 6.15684 23.5904 6.38344C23.3724 6.61004 23.25 6.91738 23.25 7.23784V19.3136C23.25 21.2363 23.9847 23.0803 25.2923 24.4399C26.6 25.7995 28.3736 26.5634 30.223 26.5634C32.0723 26.5634 33.8459 25.7995 35.1536 24.4399C36.4613 23.0803 37.1959 21.2363 37.1959 19.3136V18.1125C37.1959 17.7921 37.0735 17.4847 36.8556 17.2581C36.6376 17.0315 36.342 16.9042 36.0338 16.9042C35.7256 16.9042 35.43 17.0315 35.212 17.2581C34.9941 17.4847 34.8716 17.7921 34.8716 18.1125V19.2701C34.8716 21.9754 32.7855 24.1758 30.223 24.1758C27.6604 24.1758 25.5743 21.9754 25.5743 19.2701V7.23784C25.5743 6.91738 25.4519 6.61004 25.2339 6.38344C25.016 6.15684 24.7204 6.02954 24.4122 6.02954Z" fill="#F7146B"/>
<path d="M1.16216 10.8638C1.47039 10.8638 1.76599 10.7365 1.98393 10.5099C2.20188 10.2833 2.32432 9.976 2.32432 9.65554V7.31627C2.32432 4.61089 4.41622 2.40938 6.97297 2.40938C9.52973 2.40938 11.6216 4.61089 11.6216 7.31627V19.3207C11.6216 19.6412 11.7441 19.9485 11.962 20.1751C12.18 20.4017 12.4756 20.529 12.7838 20.529C13.092 20.529 13.3876 20.4017 13.6056 20.1751C13.8235 19.9485 13.9459 19.6412 13.9459 19.3207V7.24982C13.9459 5.32705 13.2113 3.48304 11.9036 2.12344C10.5959 0.763845 8.82232 3.05176e-05 6.97297 3.05176e-05C5.12363 3.05176e-05 3.35002 0.763845 2.04234 2.12344C0.73465 3.48304 0 5.32705 0 7.24982L0 9.65554C0 9.976 0.122442 10.2833 0.340389 10.5099C0.558337 10.7365 0.853938 10.8638 1.16216 10.8638Z" fill="#F7146B"/>
<path d="M2.32421 19.9599V15.6958C2.32457 15.5301 2.29213 15.366 2.22892 15.2139C2.16571 15.0618 2.07307 14.9248 1.95677 14.8114C1.84046 14.6981 1.70298 14.6109 1.55287 14.5551C1.40276 14.4994 1.24322 14.4764 1.08418 14.4875C0.785014 14.5152 0.506991 14.6595 0.305887 14.8915C0.104783 15.1234 -0.00452752 15.4258 -0.000115608 15.7381V19.798C0.00631911 23.0716 1.21138 26.2198 3.37015 28.6028C3.57639 28.8254 3.85854 28.9546 4.15567 28.9627C4.4528 28.9708 4.74107 28.8571 4.95822 28.646C5.17537 28.435 5.30398 28.1437 5.31627 27.8349C5.32856 27.5261 5.22355 27.2247 5.02391 26.9958C3.28985 25.097 2.32342 22.5783 2.32421 19.9599Z" fill="#F7146B"/>
<path d="M41.868 1.29061C41.1886 0.549113 40.2726 0.0903529 39.2914 0.000150606H39.2473C39.1985 0.000150606 39.1485 -0.00709918 39.0985 -0.00830748H39.0067L38.9323 -0.0119324H38.9021C38.8858 -0.0119324 38.8696 -0.0119324 38.8533 -0.0119324C38.6943 -0.0088984 38.5355 0.00401312 38.378 0.0267332H38.3582C37.3881 0.170534 36.5005 0.673625 35.8587 1.4435C35.2169 2.21338 34.8639 3.19828 34.8648 4.21711V12.071C34.8644 12.2368 34.8968 12.4008 34.9601 12.5529C35.0233 12.7051 35.1159 12.8421 35.2322 12.9554C35.3485 13.0687 35.486 13.156 35.6361 13.2117C35.7862 13.2674 35.9458 13.2904 36.1048 13.2793C36.4041 13.2519 36.6822 13.1077 36.8834 12.8757C37.0846 12.6437 37.1938 12.3411 37.1891 12.0288V4.26907C37.1845 3.7976 37.3534 3.34214 37.6613 2.99598C37.9692 2.64981 38.3927 2.43913 38.8452 2.40708C39.2441 2.38623 39.6378 2.50915 39.9597 2.75507C39.9922 2.78044 40.0236 2.80582 40.0538 2.83361L40.1061 2.87952C40.1259 2.89765 40.1445 2.91698 40.1619 2.93631C40.1793 2.95565 40.2049 2.98102 40.2247 3.00398L40.2816 3.07285L40.3351 3.14414C40.3478 3.16227 40.3606 3.17918 40.3723 3.19731C40.3839 3.21543 40.4164 3.2686 40.4373 3.30605L40.4629 3.35197C40.485 3.39426 40.5059 3.43655 40.5245 3.48005C40.5245 3.49213 40.5338 3.50421 40.5396 3.5163C40.557 3.5598 40.5733 3.6033 40.5873 3.64921L40.5942 3.66733C40.6093 3.71808 40.6221 3.77004 40.6337 3.822L40.6407 3.85583C40.65 3.90779 40.6581 3.96095 40.664 4.01532V4.04553C40.664 4.10232 40.6721 4.15911 40.6721 4.21711V19.9371C40.6736 20.4731 40.6347 21.0084 40.5559 21.5381C40.5278 21.7112 40.5364 21.8885 40.581 22.0578C40.6256 22.2271 40.7052 22.3843 40.8141 22.5184C40.9231 22.6525 41.0588 22.7603 41.2119 22.8343C41.365 22.9083 41.5318 22.9467 41.7006 22.9469C41.9776 22.947 42.2455 22.8441 42.4561 22.6569C42.6666 22.4697 42.8059 22.2105 42.8488 21.9259C42.9487 21.2721 42.9992 20.6112 42.9999 19.9492V4.21711C43.0012 3.12581 42.595 2.0766 41.8668 1.29061" fill="#F7146B"/>
<path d="M39.4681 25.8455H39.4344C39.2607 25.8465 39.0895 25.8885 38.9337 25.9682C38.7779 26.048 38.6415 26.1634 38.5348 26.3059C38.4767 26.3808 38.4186 26.4545 38.3594 26.5282C38.2408 26.674 38.1184 26.817 37.9921 26.9571C37.7146 27.2628 37.4196 27.5509 37.1089 27.8199L37.0903 27.8368C37.0368 27.8827 36.9822 27.9274 36.9276 27.9721L36.8915 28.0023L36.737 28.1231L36.6893 28.1606L36.5394 28.2742L36.4825 28.3165L36.3349 28.4228L36.2733 28.4663L36.1257 28.5666L36.0583 28.6101L35.9118 28.7055L35.8421 28.749L35.6934 28.8397L35.6213 28.882L35.4714 28.9677L35.3993 29.0076L35.2448 29.091L35.175 29.126C35.1216 29.1538 35.0693 29.1816 35.0158 29.207L34.9577 29.2348C34.7648 29.3282 34.5711 29.4152 34.3766 29.4958L34.3232 29.5175L34.1791 29.5731L34.0779 29.6106C34.0338 29.6275 33.9885 29.642 33.9443 29.6577L33.8281 29.6976L33.6979 29.7398L33.5817 29.7773L33.4539 29.8148L33.3272 29.851L33.2005 29.8848L33.0715 29.9175L32.9448 29.9477L32.8112 29.9767L32.6868 30.0033L32.5497 30.0298L32.4254 30.0516L32.2847 30.0745L32.1615 30.0927L32.0151 30.112L31.8989 30.1277L31.7467 30.1434L31.6304 30.1543L31.4701 30.1664L31.3608 30.1736L31.1807 30.1821H31.0877C30.9971 30.1821 30.9052 30.1821 30.8134 30.1821C29.2792 30.1811 27.7662 29.8086 26.3945 29.094C25.0228 28.3795 23.83 27.3425 22.9107 26.0654L22.9049 26.0763L22.8979 26.0654C22.738 25.8429 22.5304 25.6622 22.2915 25.5377C22.0526 25.4133 21.7891 25.3485 21.5219 25.3485C21.2548 25.3485 20.9913 25.4133 20.7524 25.5377C20.5135 25.6622 20.3059 25.8429 20.1459 26.0654V26.0727C18.9361 27.7676 17.2534 29.0338 15.3268 29.6991C13.4002 30.3643 11.3232 30.3963 9.37851 29.7906C9.08493 29.6993 8.76847 29.7329 8.49876 29.8842C8.22905 30.0354 8.02818 30.2919 7.94034 30.5971C7.85249 30.9024 7.88487 31.2314 8.03035 31.5118C8.17583 31.7922 8.4225 32.0011 8.71608 32.0924C9.85392 32.4557 11.0379 32.639 12.2281 32.6361C14.0194 32.636 15.7883 32.2233 17.4079 31.4278C18.9786 30.6544 20.3731 29.5423 21.4987 28.1654C23.4954 30.607 26.3069 32.1724 29.3682 32.5472C32.4295 32.922 35.5138 32.0783 38.0014 30.1857C38.0637 30.1382 38.1213 30.0844 38.1734 30.025C38.3012 29.9235 38.4268 29.8208 38.5499 29.7145L38.572 29.6951C38.6882 29.5997 38.7928 29.5006 38.9009 29.4003L38.9614 29.3447C39.052 29.2585 39.1415 29.1715 39.2298 29.0837C39.2647 29.0475 39.3007 29.0137 39.3367 28.9774C39.4111 28.9013 39.4832 28.8227 39.5564 28.7442C39.5959 28.7019 39.6366 28.6608 39.6726 28.6173L39.6819 28.6053C39.9143 28.3467 40.1398 28.0772 40.3513 27.7981C40.4873 27.622 40.5727 27.4094 40.5976 27.185C40.6224 26.9606 40.5858 26.7335 40.4919 26.5297C40.398 26.326 40.2507 26.1541 40.0668 26.0336C39.883 25.9132 39.6702 25.8493 39.4529 25.8491" fill="#F7146B"/>
</g>
</svg>
